<?xml version="1.0" encoding="utf-8"?>
<!-- Generator: Adobe Illustrator 24.0.0, SVG Export Plug-In . SVG Version: 6.00 Build 0)  -->
<svg version="1.1" id="Layer_1" xmlns="http://www.w3.org/2000/svg" xmlns:xlink="http://www.w3.org/1999/xlink" x="0px" y="0px"
	 viewBox="0 0 500 500" style="enable-background:new 0 0 500 500;" xml:space="preserve">
<style type="text/css">
	.st0{fill:#FFB52A;}
	.st1{fill:#FF6747;}
	.st2{fill:#7D2222;}
	.st3{fill:#FDDEAF;}
	.st4{fill:#F58F29;}
	.st5{fill:#97A09D;}
	.st6{fill:#858C8A;}
	.st7{fill:#FFFFFF;}
	.st8{fill:#FF9BA8;}
	.st9{fill:#15162F;}
	.st10{fill:#B43E18;}
	.st11{fill:none;stroke:#7D2222;stroke-width:1.1767;stroke-linecap:round;stroke-linejoin:round;stroke-miterlimit:10;}
	.st12{fill:#7D9F09;}
	.st13{fill:#FAEDCF;}
	.st14{fill:#75290B;}
	.st15{fill:#FF6B4D;}
	.st16{fill:#F6AB0E;}
	.st17{fill:#8C310D;}
	.st18{fill:#F55D01;}
	.st19{fill:#E03901;}
	.st20{fill:#FFFFFD;}
	.st21{fill:#732A12;}
	.st22{fill:#F05E00;}
	.st23{fill:none;stroke:#732A12;stroke-width:1.0798;stroke-linecap:round;stroke-linejoin:round;stroke-miterlimit:10;}
	.st24{fill:#FF7878;}
	.st25{fill:#FFC19E;}
	.st26{fill:none;}
	.st27{fill:none;stroke:#732A12;stroke-width:2.6732;stroke-linecap:round;stroke-linejoin:round;stroke-miterlimit:10;}
	.st28{fill:#CF4E01;}
	.st29{fill:#B7C2BE;}
	.st30{fill:#00123B;}
	.st31{fill:#FEA01C;}
	.st32{fill:#F55D3D;}
	.st33{fill:#FEDB9C;}
	.st34{fill:#D17317;}
	.st35{fill:#FEDB9C;stroke:#7D2222;stroke-width:0.7404;stroke-linecap:round;stroke-linejoin:round;stroke-miterlimit:10;}
	.st36{fill:#FEDB9C;stroke:#7D2222;stroke-width:0.7729;stroke-linecap:round;stroke-linejoin:round;stroke-miterlimit:10;}
	.st37{fill:none;stroke:#7D2222;stroke-width:0.7729;stroke-linecap:round;stroke-linejoin:round;stroke-miterlimit:10;}
	.st38{fill:#F9FBFC;}
	.st39{fill:#F6C8CC;}
	.st40{fill:#DB7B8E;}
	.st41{fill:#243350;}
	.st42{fill:#767778;}
	.st43{fill:#F9AC02;}
	.st44{fill:#F05174;}
	.st45{fill:#2C1A1B;}
	.st46{fill:#D06402;}
	.st47{fill:#B3B3B3;}
	.st48{fill:#FBA5AE;}
	.st49{fill:#363636;}
	.st50{fill:#A3A3A3;}
	.st51{fill:#F9DFC6;}
	.st52{fill:#CA7A43;}
	.st53{fill:#5F3423;}
	.st54{fill:#DE3757;}
	.st55{fill:#E2A364;}
	.st56{fill:#FFE3C9;}
	.st57{fill:#281A1A;}
	.st58{fill:#EC7F7F;}
	.st59{fill:#CF8248;}
	.st60{fill:#F6E7D3;}
	.st61{fill:#573640;}
	.st62{fill:#AF2B4C;}
	.st63{fill:#9D532F;}
	.st64{fill:#571016;}
	.st65{fill:#FDFDF9;}
	.st66{fill:#942B1D;}
	.st67{fill:#C2552A;}
	.st68{fill:#EF772E;}
	.st69{fill:#E4E6E7;}
	.st70{fill:none;stroke:#243350;stroke-width:0.4733;stroke-miterlimit:10;}
	.st71{fill:none;stroke:#7D2222;stroke-width:2.5806;stroke-linecap:round;stroke-linejoin:round;stroke-miterlimit:10;}
	.st72{fill:none;stroke:#243350;stroke-width:1.0322;stroke-miterlimit:10;}
	.st73{fill:none;stroke:#2C1A1B;stroke-width:0.4342;stroke-linecap:round;stroke-linejoin:round;stroke-miterlimit:10;}
	.st74{fill:none;stroke:#2C1A1B;stroke-width:0.8683;stroke-linecap:round;stroke-linejoin:round;stroke-miterlimit:10;}
	.st75{fill:#3B3B3D;stroke:#3B3B3D;stroke-width:0.3117;stroke-miterlimit:10;}
	.st76{fill:#F9A4A5;}
	.st77{fill:#FFCC6E;}
	.st78{fill:#A9444B;}
	.st79{fill:none;stroke:#3B3B3D;stroke-width:0.935;stroke-linecap:round;stroke-linejoin:round;stroke-miterlimit:10;}
	.st80{fill:#3B3B3D;}
	.st81{fill:#FB8A00;}
	.st82{fill:#F6EADE;}
	.st83{fill:#BDBAB2;}
	.st84{fill:#947861;}
	.st85{fill:#2E1F1D;}
	.st86{fill:#86827C;}
	.st87{fill:none;stroke:#7D2222;stroke-width:1.0198;stroke-linecap:round;stroke-linejoin:round;stroke-miterlimit:10;}
	.st88{fill:#FEDB9C;stroke:#7D2222;stroke-width:1.4293;stroke-linecap:round;stroke-linejoin:round;stroke-miterlimit:10;}
	.st89{fill:#FEDB9C;stroke:#7D2222;stroke-width:1.4921;stroke-linecap:round;stroke-linejoin:round;stroke-miterlimit:10;}
	.st90{fill:none;stroke:#7D2222;stroke-width:1.4921;stroke-linecap:round;stroke-linejoin:round;stroke-miterlimit:10;}
	.st91{fill:#3B3B3D;stroke:#3B3B3D;stroke-width:0.7305;stroke-miterlimit:10;}
	.st92{fill:none;stroke:#3B3B3D;stroke-width:2.1916;stroke-linecap:round;stroke-linejoin:round;stroke-miterlimit:10;}
	.st93{fill:none;stroke:#7D2222;stroke-width:3.0894;stroke-linecap:round;stroke-linejoin:round;stroke-miterlimit:10;}
	.st94{fill:none;stroke:#2E1F1D;stroke-width:0.6143;stroke-linecap:round;stroke-linejoin:round;stroke-miterlimit:10;}
	.st95{fill:none;stroke:#00FF00;stroke-width:0.2326;stroke-miterlimit:10;}
	.st96{fill:none;stroke:#2C1A1B;stroke-width:1.0325;stroke-linecap:round;stroke-linejoin:round;stroke-miterlimit:10;}
	.st97{fill:none;stroke:#2C1A1B;stroke-width:2.0651;stroke-linecap:round;stroke-linejoin:round;stroke-miterlimit:10;}
	.st98{fill:none;stroke:#2E1F1D;stroke-width:1.3604;stroke-linecap:round;stroke-linejoin:round;stroke-miterlimit:10;}
	.st99{fill:none;stroke:#00FF00;stroke-width:0.3936;stroke-miterlimit:10;}
	.st100{fill:#B2B2B2;}
	.st101{fill:#858585;}
	.st102{fill:#573126;}
	.st103{fill:#E9CFB8;}
</style>
<g>
	<path class="st38" d="M337.52,472.7c-1.57,7.6-3.18,13.15-3.18,13.15s-1.52-0.28-4.01-0.74c-10.12-1.86-36.37-6.59-42.31-6.84
		c-7.03-0.3-24.24,2.23-39.17,2.23l-0.01,0.14c-15.46,0.31-34.24-2.53-41.66-2.22c-7.41,0.32-46.31,7.57-46.31,7.57
		s-1.88-6.52-3.58-15.1c-2.75-13.88-4.98-33.17,2.12-38.94c11.48-9.35,18.22-2.72,18.22-2.72c0.24-2.79,0.59-5.59,1.01-8.38
		c3.32-21.57,11.75-42.55,16.76-53.69c2.31-5.16,3.89-8.2,3.89-8.2l45.99,1.56l50.63-1.72c0,0,1.66,3.18,4.05,8.55
		c5.68,12.69,15.53,37.6,17.61,61.71c0,0,6.54-6.44,17.72,2.32c0.16,0.12,0.33,0.26,0.5,0.4
		C343.23,437.86,340.43,458.73,337.52,472.7z"/>
	<path class="st69" d="M299.96,367.36c-36.92,12.71-94.64,1.83-104.56-0.19c2.31-5.16,3.89-8.2,3.89-8.2l45.99,1.56l50.63-1.72
		C295.91,358.81,297.57,362,299.96,367.36z"/>
	<path class="st7" d="M304.12,377.2c0,0,4.89,26.12,1.26,51.05s-9.31,37.01-9.31,37.01s8.96,2.92,11.8,10.73
		c2.84,7.81-0.55,13.69-8.01,14.48c0,0-6.04,5.64-13.65,0.87c0,0-4.97,5.48-16.73,2.29c-11.76-3.2-18.38-14.01-16.73-31.84
		c1.66-17.83,6-56.34,6-56.34l1.97-25.01L304.12,377.2z"/>
	<g>
		<path class="st38" d="M284.27,185.66c0,0-2.37-63.32,12.78-106.64c15.15-43.32,53.5-67.94,77.4-67.58
			c23.91,0.36,23.32,24.97,17.16,42.96c-6.15,17.99-12.43,27.69-36.57,63.2c-24.14,35.51-44.15,73.5-47.7,82.73L284.27,185.66z"/>
		<path class="st39" d="M384.72,25.84c0,0-14.4-12.86-36.06,10.22c-21.66,23.08-26.12,70.42-29.43,88.57
			c-3.31,18.15-10.1,57.44-15.15,73.85c0,0,15.94-40.56,41.03-76.38C370.2,86.28,400.5,40.52,384.72,25.84z"/>
	</g>
	<g>
		<path class="st38" d="M205.72,185.66c0,0,2.37-63.32-12.78-106.64c-15.15-43.32-53.5-67.94-77.4-67.58
			C91.63,11.8,92.22,36.42,98.38,54.41c6.15,17.99,12.43,27.69,36.57,63.2c24.14,35.51,44.15,73.5,47.7,82.73L205.72,185.66z"/>
		<path class="st39" d="M105.28,25.84c0,0,14.4-12.86,36.06,10.22c21.66,23.08,26.12,70.42,29.43,88.57
			c3.31,18.15,10.1,57.44,15.15,73.85c0,0-15.94-40.56-41.03-76.38C119.8,86.28,89.5,40.52,105.28,25.84z"/>
	</g>
	<path class="st38" d="M149.74,290.96c0,0-4.73-29.98,12.47-63.75c17.2-33.77,51.13-44.97,59.73-48.21
		c8.6-3.24,13.26-10.65,11.6-21.07c0,0,12.86,7.42,6.23,21.46c0,0,5.8-6.59,16.73-8.36c10.93-1.78,16.29,0.95,16.29,0.95
		s-1.01,2.62-6.51,5.29c0,0,4.56-1.36,12.13-2.07c7.57-0.71,11.42-3.73,12.19-7.34c0,0,4.2,10.59-7.1,16.16
		c0,0,31.46,8.32,49.14,40.2c17.67,31.88,13.73,68.49,13.73,68.49s11.28,10.38,4.18,29.55c-7.1,19.17-34.32,44.66-102.5,44.46
		c-66.87-0.2-88.25-22.05-99.3-38.31c-11.05-16.25-3.31-34.32,1.54-37.16"/>
	<path class="st41" d="M282.61,219.08c0,0-4.95-0.53-4.73,4.87c0.19,4.65,8.05,3.02,14.91,5.86s8.76,7.34,8.76,7.34
		S296.5,220.89,282.61,219.08z"/>
	<path class="st41" d="M213.09,219c0,0,4.95-0.53,4.73,4.87c-0.19,4.65-8.05,3.02-14.91,5.86c-6.86,2.84-8.76,7.34-8.76,7.34
		S199.21,220.81,213.09,219z"/>
	<ellipse class="st41" cx="290.86" cy="282.51" rx="18.82" ry="20.28"/>
	<path class="st38" d="M293.27,276.4c0,4.42-3.44,8.01-7.69,8.01c-4.25,0-7.69-3.59-7.69-8.01s3.44-8.01,7.69-8.01
		C289.82,268.39,293.27,271.98,293.27,276.4z"/>
	<ellipse class="st41" cx="205.64" cy="282.51" rx="18.82" ry="20.28"/>
	<path class="st38" d="M203.24,276.4c0,4.42,3.44,8.01,7.69,8.01c4.25,0,7.69-3.59,7.69-8.01s-3.44-8.01-7.69-8.01
		C206.68,268.39,203.24,271.98,203.24,276.4z"/>
	<path class="st40" d="M246,288.75c0,0,9.46-0.79,11.02,2.25c1.07,2.07-3.64,3.67-4.59,4.73c-0.95,1.07-2.46,3.34-4.82,3.64
		c-2.37,0.3-3.4-2.87-5.18-3.88c-1.78-1.01-4.32-2.78-3.61-4.5C239.53,289.28,243.6,288.98,246,288.75z"/>
	<g>
		<path class="st72" d="M247.61,299.37c0,0-0.06,5.21,0.03,6.48"/>
		<path class="st39" d="M236.1,312.02c0,0,1.85,16.45,11.48,16.61c9.63,0.16,11.13-15.7,11.09-16.77c0,0-4.22-1.07-6.71-2.17
			c-2.49-1.1-4.14-4.08-4.14-4.08S244.3,311.84,236.1,312.02z"/>
		<g>
			<path class="st41" d="M248.1,305.32c-0.69,2.31-2.27,4.18-4.16,5.59c-1.92,1.36-4.3,2.29-6.76,2.19
				c-2.45-0.02-4.81-1.05-6.62-2.54c-1.82-1.51-3.23-3.35-4.18-5.48l0.92-0.46c1.16,1.75,2.65,3.35,4.31,4.55
				c1.7,1.16,3.62,1.91,5.6,1.91c1.97,0.04,3.93-0.65,5.66-1.72c1.71-1.1,3.29-2.59,4.25-4.39L248.1,305.32z"/>
		</g>
		<g>
			<path class="st41" d="M224.51,305.46c0.34-0.16,0.75-0.33,1.09-0.53c0.35-0.2,0.67-0.41,0.95-0.65c0.3-0.23,0.54-0.51,0.76-0.81
				c0.24-0.3,0.39-0.66,0.59-1.03l0.04-0.06c0.14-0.25,0.45-0.35,0.71-0.21c0.18,0.1,0.28,0.29,0.27,0.48
				c-0.02,0.52-0.12,1.05-0.38,1.53c-0.22,0.5-0.58,0.93-0.99,1.28c-0.41,0.35-0.88,0.62-1.38,0.79c-0.5,0.17-0.98,0.27-1.55,0.24
				c-0.29-0.02-0.51-0.26-0.49-0.55c0.01-0.2,0.13-0.36,0.3-0.44L224.51,305.46z"/>
		</g>
		<g>
			<path class="st41" d="M268.79,304.48c-0.92,2.14-2.31,4.02-4.14,5.53c-1.83,1.47-4.2,2.5-6.66,2.49
				c-1.22,0.03-2.44-0.17-3.57-0.58c-1.14-0.39-2.2-0.96-3.15-1.66c-1.88-1.4-3.47-3.24-4.2-5.54l0.97-0.35
				c0.92,1.82,2.49,3.34,4.21,4.45c1.76,1.05,3.72,1.75,5.7,1.67c1.98-0.03,3.89-0.79,5.56-1.97c1.66-1.19,3.16-2.77,4.35-4.5
				L268.79,304.48z"/>
		</g>
		<g>
			<path class="st41" d="M270.55,305.89c-0.56,0.03-1.05-0.07-1.55-0.24c-0.5-0.17-0.96-0.44-1.38-0.79
				c-0.41-0.35-0.77-0.79-0.99-1.28c-0.25-0.48-0.36-1.02-0.38-1.53c-0.01-0.29,0.21-0.53,0.5-0.54c0.2-0.01,0.39,0.1,0.48,0.27
				l0.04,0.07c0.2,0.37,0.36,0.73,0.59,1.03c0.23,0.3,0.47,0.58,0.76,0.81c0.29,0.24,0.61,0.45,0.95,0.65
				c0.34,0.2,0.74,0.37,1.09,0.53l0.08,0.04c0.26,0.12,0.37,0.43,0.25,0.69C270.9,305.77,270.73,305.88,270.55,305.89z"/>
		</g>
	</g>
	<g>
		<polygon class="st41" points="245.75,308.16 247.52,321.06 249.53,308.1 247.61,305.73 		"/>
	</g>
	<ellipse class="st39" cx="322.38" cy="312.1" rx="18.94" ry="13.89"/>
	<ellipse class="st39" cx="172.78" cy="312.18" rx="19.09" ry="13.81"/>
	<g>
		<g>
			<path class="st42" d="M341.16,293.64c2.37-0.88,4.76-1.67,7.16-2.44c2.4-0.78,4.81-1.49,7.23-2.2c2.42-0.69,4.85-1.37,7.29-1.99
				c2.44-0.62,4.89-1.23,7.36-1.74c-2.37,0.89-4.76,1.67-7.16,2.44c-2.4,0.78-4.81,1.49-7.23,2.2c-2.42,0.69-4.85,1.37-7.29,1.98
				C346.08,292.52,343.64,293.13,341.16,293.64z"/>
		</g>
		<g>
			<path class="st42" d="M342.27,306.58c2.97-0.93,5.98-1.67,9.02-2.35c3.03-0.68,6.1-1.2,9.16-1.71c3.08-0.43,6.17-0.81,9.27-1.04
				c3.1-0.2,6.22-0.28,9.32-0.11c-1.55,0.14-3.1,0.19-4.64,0.37c-1.54,0.11-3.08,0.3-4.62,0.46c-3.07,0.37-6.14,0.75-9.19,1.25
				c-3.06,0.43-6.11,0.97-9.16,1.49L342.27,306.58z"/>
		</g>
		<g>
			<path class="st42" d="M328.06,314.31c3.81-0.1,7.63,0.03,11.43,0.25c3.81,0.22,7.6,0.61,11.4,1.04
				c3.78,0.53,7.55,1.12,11.29,1.91c3.73,0.83,7.43,1.81,11.01,3.11c-1.86-0.42-3.69-0.94-5.56-1.28c-1.85-0.44-3.73-0.75-5.59-1.11
				c-3.75-0.64-7.5-1.24-11.27-1.69c-3.77-0.51-7.55-0.89-11.33-1.26c-1.89-0.19-3.79-0.36-5.68-0.51
				C331.86,314.59,329.96,314.47,328.06,314.31z"/>
		</g>
	</g>
	<g>
		<g>
			<path class="st42" d="M150.69,293.17c-2.47-0.51-4.92-1.12-7.36-1.74c-2.44-0.61-4.87-1.3-7.29-1.98
				c-2.42-0.71-4.83-1.42-7.23-2.2c-2.4-0.77-4.79-1.55-7.16-2.44c2.47,0.51,4.92,1.12,7.36,1.74c2.44,0.61,4.87,1.3,7.29,1.99
				c2.42,0.71,4.83,1.42,7.23,2.2C145.93,291.5,148.32,292.28,150.69,293.17z"/>
		</g>
		<g>
			<path class="st42" d="M149.58,306.11l-9.16-1.64c-3.05-0.52-6.1-1.06-9.16-1.49c-3.05-0.5-6.12-0.87-9.19-1.25
				c-1.54-0.16-3.07-0.35-4.62-0.46c-1.54-0.18-3.09-0.23-4.64-0.37c3.1-0.17,6.22-0.09,9.32,0.11c3.1,0.23,6.19,0.61,9.27,1.04
				c3.07,0.51,6.13,1.04,9.16,1.71C143.6,304.43,146.62,305.18,149.58,306.11z"/>
		</g>
		<g>
			<path class="st42" d="M163.79,313.84c-1.9,0.15-3.8,0.28-5.69,0.46c-1.9,0.15-3.79,0.32-5.68,0.51
				c-3.78,0.37-7.57,0.75-11.33,1.26c-3.77,0.45-7.52,1.05-11.27,1.69c-1.86,0.36-3.74,0.67-5.59,1.11
				c-1.87,0.35-3.7,0.86-5.56,1.28c3.59-1.3,7.29-2.28,11.01-3.11c3.74-0.79,7.51-1.38,11.29-1.91c3.79-0.43,7.59-0.83,11.4-1.04
				C156.16,313.87,159.97,313.74,163.79,313.84z"/>
		</g>
	</g>
	<g>
		<path class="st38" d="M165.68,484.74c-10.76,7.45-27.06,2.84-39.06-14.44c-0.13-0.2-0.27-0.39-0.4-0.59c0-0.01,0-0.01-0.01-0.01
			c-11.56-17.04-10.32-32.23-10.32-32.23c0.86-11.67,5.92-23.51,21.54-23.82c9.32-0.19,17.16,8.4,22.56,18.07
			c2.88,5.16,5.08,10.6,6.56,14.76c1.51,4.24,2.27,7.18,2.27,7.18S176.28,477.41,165.68,484.74z"/>
		<path class="st40" d="M154.98,455.58c4.23,9.03,3.1,18.48-2.52,21.11c-5.62,2.63-13.6-2.55-17.83-11.58
			c-4.23-9.03-3.1-18.48,2.52-21.11C142.77,441.37,150.75,446.55,154.98,455.58z"/>
		<path class="st40" d="M138.97,427.95c1.44,4.33,0.44,8.55-2.22,9.44c-2.67,0.89-6-1.9-7.44-6.23c-1.44-4.33-0.44-8.55,2.22-9.44
			C134.2,420.84,137.53,423.63,138.97,427.95z"/>
		<path class="st40" d="M151.18,430.99c1.03,3.1,0.32,6.12-1.59,6.76c-1.91,0.64-4.29-1.36-5.32-4.46c-1.03-3.1-0.32-6.12,1.59-6.76
			C147.76,425.9,150.15,427.89,151.18,430.99z"/>
		<path class="st40" d="M127.38,437.66c1.63,2.83,1.54,5.93-0.2,6.94c-1.74,1.01-4.48-0.47-6.11-3.3c-1.63-2.83-1.54-5.93,0.2-6.94
			C123.01,433.35,125.75,434.83,127.38,437.66z"/>
	</g>
	<g>
		<path class="st38" d="M368.58,470.14c-2.74,3.95-5.7,7.23-8.77,9.86c-10.05,8.62-21.24,10.24-29.48,5.11
			c-0.27-0.17-0.55-0.34-0.81-0.53c-3.84-2.66-5.31-7.5-5.62-12.57c-0.54-8.89,2.47-18.51,2.47-18.51s3.02-11.53,8.83-21.94
			c0.03-0.06,0.06-0.1,0.09-0.16c5.4-9.59,13.21-18.09,22.48-17.9c15.62,0.31,20.67,12.15,21.54,23.83
			C379.32,437.33,380.57,452.86,368.58,470.14z"/>
		<path class="st40" d="M340.23,455.42c-4.23,9.03-3.1,18.48,2.52,21.11c5.62,2.63,13.6-2.55,17.83-11.58
			c4.23-9.03,3.1-18.48-2.52-21.11C352.44,441.21,344.46,446.39,340.23,455.42z"/>
		<path class="st40" d="M356.24,427.8c-1.44,4.33-0.44,8.55,2.22,9.44c2.67,0.89,6-1.9,7.43-6.23c1.44-4.33,0.44-8.55-2.22-9.44
			C361,420.68,357.68,423.47,356.24,427.8z"/>
		<path class="st40" d="M344.03,430.83c-1.03,3.1-0.32,6.12,1.59,6.76c1.91,0.64,4.29-1.36,5.32-4.46c1.03-3.1,0.32-6.12-1.59-6.76
			C347.44,425.74,345.06,427.74,344.03,430.83z"/>
		<path class="st40" d="M367.82,437.5c-1.63,2.83-1.54,5.93,0.2,6.94c1.74,1.01,4.48-0.47,6.11-3.3c1.63-2.83,1.54-5.93-0.2-6.94
			C372.19,433.2,369.45,434.67,367.82,437.5z"/>
	</g>
	<path class="st38" d="M242.6,470.35c-0.86,12.85-7.09,20.78-16.87,23.44c-11.76,3.19-16.73-2.29-16.73-2.29
		c-7.61,4.77-13.65-0.87-13.65-0.87c-7.46-0.79-10.85-6.67-8.01-14.48c2.84-7.81,11.79-10.73,11.79-10.73s-0.01-0.01-0.01-0.01
		c-0.17-0.37-5.73-12.45-9.3-37c-3.63-24.93,1.26-51.05,1.26-51.05l43.4,3.23l1.97,25.02c0,0,4.34,38.51,6,56.34
		C242.73,464.94,242.78,467.75,242.6,470.35z"/>
</g>
</svg>
